PathFileType	4	(X/Y/Z)	/Users/itak/Documents/Research/Walk-IL/dataset/trc/00207_00008.trc
DataRate	CameraRate	NumFrames	NumMarkers	Units	OrigDataRate	OrigDataStartFrame	OrigNumFrames
100.000000	100.000000	4	53	mm	100.000000	257	514
Frame#	Time	RPSI			LPSI			L3			STRN			T10			C7			CLAV			RBAK			LBAK			LSHO			LUPA			LAEL			LAOL			LWTS			LWPS			LFRA			LIFD			LHPS			LHTS			RSHO			RUPA			RAEL			RAOL			RWTS			RWPS			RFRA			RIFD			RHTS			RHPS			RBHD			LFHD			RFHD			LBHD			LHIP			RHIP			RASI			LASI			LKNE			LTHI			LANK			LTIP			LTOE			LMT1			LMT5			LHEE			RKNE			RTHI			RANK			RTIP			RTOE			RMT1			RMT5			RHEE			
		X1	Y1	Z1	X2	Y2	Z2	X3	Y3	Z3	X4	Y4	Z4	X5	Y5	Z5	X6	Y6	Z6	X7	Y7	Z7	X8	Y8	Z8	X9	Y9	Z9	X10	Y10	Z10	X11	Y11	Z11	X12	Y12	Z12	X13	Y13	Z13	X14	Y14	Z14	X15	Y15	Z15	X16	Y16	Z16	X17	Y17	Z17	X18	Y18	Z18	X19	Y19	Z19	X20	Y20	Z20	X21	Y21	Z21	X22	Y22	Z22	X23	Y23	Z23	X24	Y24	Z24	X25	Y25	Z25	X26	Y26	Z26	X27	Y27	Z27	X28	Y28	Z28	X29	Y29	Z29	X30	Y30	Z30	X31	Y31	Z31	X32	Y32	Z32	X33	Y33	Z33	X34	Y34	Z34	X35	Y35	Z35	X36	Y36	Z36	X37	Y37	Z37	X38	Y38	Z38	X39	Y39	Z39	X40	Y40	Z40	X41	Y41	Z41	X42	Y42	Z42	X43	Y43	Z43	X44	Y44	Z44	X45	Y45	Z45	X46	Y46	Z46	X47	Y47	Z47	X48	Y48	Z48	X49	Y49	Z49	X50	Y50	Z50	X51	Y51	Z51	X52	Y52	Z52	X53	Y53	Z53	

258	2.57	-394.5590209960938	1039.176025390625	-312.7531433105469	-307.0354614257812	1048.29931640625	-398.7566528320312	-351.6769104003906	1082.641357421875	-353.2280578613281	-168.6419830322266	1287.810913085938	-158.5502166748047	-364.2853393554688	1244.488159179688	-380.7843322753906	-305.5867614746094	1510.4716796875	-332.5015258789062	-178.3432159423828	1402.7705078125	-182.5111389160156	-434.50732421875	1338.027221679688	-315.240966796875	-235.0001525878906	1486.668579101562	-404.6772155761719	-127.6640396118164	1475.015869140625	-399.2729797363281	-89.11438751220703	1349.697387695312	-477.7761840820312	-43.38768768310547	1139.503784179688	-495.3157348632812	-125.9495315551758	1110.588989257812	-475.145751953125	57.6607780456543	919.2453002929688	-405.7597961425781	25.10719299316406	894.0598754882812	-489.7718811035156	-6.835019588470459	1033.324584960938	-500.118408203125	83.61414337158203	739.1117553710938	-382.3491821289062	50.7632942199707	828.0951538085938	-475.2988586425781	92.82375335693359	845.7496948242188	-417.2826843261719	-398.1385192871094	1487.020141601562	-165.5001525878906	-464.4979248046875	1421.68212890625	-139.3775939941406	-524.203125	1133.920532226562	-127.9917449951172	-445.0840759277344	1126.5546875	-187.5740051269531	-416.9171752929688	916.3865966796875	-14.93447589874268	-496.6567993164062	892.2505493164062	-48.45650863647461	-522.13427734375	1061.56689453125	-94.68095397949219	-377.1441955566406	729.8347778320312	1.240709900856018	-403.6016845703125	827.2611694335938	17.58748054504395	-472.1132507324219	812.6083984375	-21.07174491882324	-323.3967590332031	1670.119995117188	-244.8589019775391	-118.8548202514648	1718.335815429688	-195.9690399169922	-218.9662017822266	1715.359741210938	-114.1576232910156	-224.0404052734375	1680.279052734375	-337.6191711425781	-148.8268127441406	993.5823364257812	-406.7091979980469	-378.6080627441406	997.3761596679688	-114.5328979492188	-283.2322692871094	1029.80712890625	-97.01121520996094	-100.275390625	1027.4091796875	-277.6024780273438	-177.5163116455078	497.4113159179688	-374.9383850097656	-149.2126312255859	640.320556640625	-386.8841247558594	-272.2814636230469	33.7901725769043	-444.9865417480469	-214.9388580322266	273.3696899414062	-417.6034545898438	-130.5673675537109	39.04343414306641	-274.8659973144531	-198.7715454101562	44.62710189819336	-275.9020080566406	-166.1261291503906	27.00888061523438	-400.6531982421875	-355.7599487304688	40.87529754638672	-430.1578979492188	-209.5384216308594	535.0551147460938	9.951813697814941	-300.5401916503906	795.3402709960938	-26.30395126342773	-224.0105590820312	48.05747604370117	-110.1091079711914	-183.3838500976562	411.6930236816406	4.578919887542725	-101.8999862670898	88.16364288330078	59.26117324829102	-81.89113616943359	73.54862976074219	-2.728477716445923	-205.3477325439453	52.01094818115234	2.546135425567627	-188.214111328125	52.42610931396484	-185.573486328125	
259	2.58	-388.1665344238281	1037.820678710938	-308.00244140625	-300.4336547851562	1047.098266601562	-393.7957153320312	-345.0245666503906	1081.34375	-348.3285827636719	-162.8319549560547	1286.394409179688	-152.6167907714844	-357.4013366699219	1243.189819335938	-375.8868103027344	-298.9650573730469	1509.111694335938	-327.1051635742188	-172.4706878662109	1401.388671875	-176.4585113525391	-427.9334411621094	1336.613037109375	-310.6973266601562	-228.0053100585938	1485.455688476562	-398.9748840332031	-120.6791915893555	1473.892333984375	-392.8291931152344	-80.92916870117188	1348.87744140625	-471.0687561035156	-32.84363555908203	1139.200805664062	-488.1510925292969	-115.2152709960938	1109.328125	-468.5031433105469	70.73789978027344	920.9561157226562	-396.8148803710938	38.97457122802734	894.6636962890625	-480.7864379882812	5.145979881286621	1033.4404296875	-492.2118530273438	99.55520629882812	741.5018920898438	-371.8861083984375	65.59580993652344	829.2093505859375	-465.6977844238281	107.1180419921875	847.9852294921875	-407.6435241699219	-392.4490051269531	1485.447631835938	-160.6413116455078	-458.8775024414062	1419.975219726562	-135.0140380859375	-517.9918823242188	1132.016845703125	-124.8085708618164	-438.4378967285156	1125.091552734375	-183.7256774902344	-411.5256958007812	914.445068359375	-10.98270702362061	-490.9188537597656	890.24072265625	-45.48957824707031	-516.1961059570312	1059.620483398438	-91.63727569580078	-371.7697143554688	727.9134521484375	5.24124002456665	-398.4660339355469	825.2813720703125	21.4815731048584	-466.6173400878906	810.6026000976562	-17.98141670227051	-317.4543151855469	1668.428833007812	-239.6916198730469	-113.5947418212891	1717.1259765625	-188.7862701416016	-214.3739318847656	1713.731079101562	-107.8844299316406	-217.3447418212891	1679.037719726562	-331.4666137695312	-142.3473205566406	992.5498657226562	-401.31103515625	-372.7353820800781	995.7721557617188	-109.8384628295898	-277.4701843261719	1028.119262695312	-91.93477630615234	-93.98649597167969	1026.000122070312	-271.9204406738281	-175.2091674804688	496.8506774902344	-372.8757019042969	-145.5965270996094	639.5580444335938	-383.5508728027344	-272.4344482421875	34.02933883666992	-444.7454833984375	-213.9314575195312	273.3838500976562	-416.6926879882812	-130.4284973144531	38.91819000244141	-274.7000122070312	-198.7243957519531	44.47029495239258	-275.8009033203125	-166.1051788330078	27.04882431030273	-400.6246337890625	-355.8782348632812	41.20459365844727	-429.830810546875	-203.2115173339844	534.1395263671875	14.97456455230713	-295.119140625	793.8786010742188	-21.30413055419922	-200.7404174804688	43.0125732421875	-87.55475616455078	-173.9384307861328	411.9172058105469	13.29927349090576	-81.70536041259766	93.53125	80.97709655761719	-60.76796340942383	77.25040435791016	19.59677314758301	-183.3956451416016	51.8122673034668	24.88459968566895	-165.0026702880859	46.21907043457031	-162.9741973876953	
260	2.59	-381.7562255859375	1036.348022460938	-303.0430908203125	-293.9361267089844	1045.817626953125	-388.6910095214844	-338.442138671875	1079.950561523438	-343.2434692382812	-157.0387878417969	1284.88427734375	-146.5847015380859	-350.6111755371094	1241.77880859375	-370.8152770996094	-292.430419921875	1507.6513671875	-321.5712890625	-166.6351165771484	1399.908447265625	-170.3017272949219	-421.4255981445312	1335.087646484375	-305.9675598144531	-221.1228179931641	1484.1318359375	-393.1485290527344	-113.802001953125	1472.6748046875	-386.3021545410156	-72.88706207275391	1347.95556640625	-464.2679443359375	-22.46770668029785	1138.812133789062	-480.8608703613281	-104.6477966308594	1108.010009765625	-461.7613830566406	83.45703887939453	922.55224609375	-387.71630859375	52.57631301879883	895.2182006835938	-471.6807250976562	16.91689300537109	1033.48486328125	-484.1722106933594	114.9545974731445	743.781494140625	-361.3424072265625	80.11274719238281	830.2749633789062	-455.982177734375	121.0102310180664	850.1073608398438	-397.8450927734375	-386.808349609375	1483.7783203125	-155.6210479736328	-453.2698059082031	1418.1728515625	-130.4477844238281	-511.7969055175781	1130.031127929688	-121.3683624267578	-431.8785400390625	1123.57177734375	-179.6746215820312	-406.1869812011719	912.327392578125	-6.976170063018799	-485.2488403320312	888.1127319335938	-42.37976837158203	-510.2678527832031	1057.590209960938	-88.36337280273438	-366.5210876464844	725.7772827148438	9.174880027770996	-393.341796875	823.09375	25.37501335144043	-461.2215576171875	808.4606323242188	-14.82250785827637	-311.5653076171875	1666.65283203125	-234.4166870117188	-108.3915481567383	1715.820190429688	-181.5597076416016	-209.8073883056641	1712.022094726562	-101.5455856323242	-210.7281341552734	1677.677124023438	-325.2210388183594	-135.9307708740234	991.4954223632812	-395.8495483398438	-366.8053894042969	993.9844970703125	-104.951301574707	-271.6423645019531	1026.263427734375	-86.68865966796875	-87.71123504638672	1024.524291992188	-266.1889953613281	-172.7956848144531	496.2638244628906	-370.7342224121094	-141.9091033935547	638.7861938476562	-380.180419921875	-272.5894775390625	34.25436401367188	-444.5119018554688	-212.8649291992188	273.3988037109375	-415.7542114257812	-130.2838287353516	38.81197738647461	-274.5419921875	-198.6626281738281	44.343505859375	-275.7033081054688	-166.0860748291016	27.08051872253418	-400.6037292480469	-355.9956359863281	41.55284118652344	-429.502197265625	-197.1594543457031	532.8610229492188	19.79067230224609	-289.7625732421875	792.077880859375	-16.34894180297852	-177.8790588378906	38.80232620239258	-64.89035034179688	-164.8381958007812	412.05712890625	21.7886962890625	-62.04407119750977	99.34990692138672	102.3661117553711	-40.25284194946289	81.55155944824219	41.56759262084961	-161.8916168212891	52.26232528686523	47.13129425048828	-142.2692718505859	40.95951080322266	-140.2689361572266	
261	2.6	-375.3073120117188	1034.769287109375	-297.857666015625	-287.5333557128906	1044.471069335938	-383.4317321777344	-331.9325561523438	1078.472900390625	-337.9647216796875	-151.2534790039062	1283.29150390625	-140.4471740722656	-343.9083557128906	1240.259765625	-365.5655517578125	-285.9818115234375	1506.099365234375	-315.8977966308594	-160.8314666748047	1398.338500976562	-164.0359344482422	-414.978759765625	1333.45458984375	-301.0500793457031	-214.3466339111328	1482.705322265625	-387.1959838867188	-107.0313110351562	1471.372192382812	-379.6896057128906	-64.99349975585938	1346.935546875	-457.3746948242188	-12.27242279052734	1138.339477539062	-473.44189453125	-94.25807189941406	1106.6396484375	-454.9096069335938	95.80728149414062	924.0222778320312	-378.476318359375	65.87992858886719	895.71728515625	-462.4627990722656	28.45725059509277	1033.455688476562	-476.0013732910156	129.8027954101562	745.9354858398438	-350.7358093261719	94.281982421875	831.2821044921875	-446.1646728515625	134.483154296875	852.1023559570312	-387.9082946777344	-381.2213745117188	1482.016845703125	-150.4386596679688	-447.6736755371094	1416.279174804688	-125.6776275634766	-505.633544921875	1127.970336914062	-117.6623611450195	-425.412353515625	1121.990844726562	-175.4150390625	-400.8987731933594	910.0454711914062	-2.910542011260986	-479.6574096679688	885.8782958984375	-39.11179733276367	-504.3615112304688	1055.483642578125	-84.84932708740234	-361.3909606933594	723.441162109375	13.04809951782227	-388.2296142578125	820.7142944335938	29.27853012084961	-455.9235534667969	806.1932373046875	-11.57890796661377	-305.7139282226562	1664.800170898438	-229.0257568359375	-103.2363967895508	1714.425048828125	-174.2843322753906	-205.2585906982422	1710.23828125	-95.13456726074219	-204.1882629394531	1676.21044921875	-318.8760681152344	-129.5639190673828	990.4224243164062	-390.3182983398438	-360.804443359375	992.0272827148438	-99.85398101806641	-265.7315979003906	1024.263427734375	-81.25071716308594	-81.44282531738281	1022.983093261719	-260.4043273925781	-170.2614288330078	495.6468200683594	-368.4977416992188	-138.1409454345703	638.0036010742188	-376.7664184570312	-272.7454833984375	34.46805953979492	-444.2823486328125	-211.7322387695312	273.4104614257812	-414.771484375	-130.1421203613281	38.71960067749023	-274.393798828125	-198.5907440185547	44.24297332763672	-275.6103820800781	-166.0695648193359	27.10430335998535	-400.5888977050781	-356.1106872558594	41.92445373535156	-429.1701965332031	-191.3260040283203	531.2611694335938	24.44209289550781	-284.4483032226562	789.9608764648438	-11.42095756530762	-155.5473937988281	35.46990585327148	-42.25478363037109	-156.0612182617188	412.1451721191406	30.05347633361816	-42.98264694213867	105.5744400024414	123.3697357177734	-20.41057777404785	86.41204833984375	63.12206649780273	-140.9301147460938	53.36152648925781	69.18522644042969	-120.1068801879883	36.68236923217773	-117.5938415527344	
